<?xml version="1.0" standalone="no"?><!DOCTYPE svg PUBLIC "-//W3C//DTD SVG 1.1//EN" "http://www.w3.org/Graphics/SVG/1.1/DTD/svg11.dtd"><svg t="1603417269422" class="icon" viewBox="0 0 1024 1024" version="1.1" xmlns="http://www.w3.org/2000/svg" p-id="4283" xmlns:xlink="http://www.w3.org/1999/xlink" width="200" height="200"><defs><style type="text/css"></style></defs><path d="M684.2 992H466.4a163.5 163.5 0 0 1-144.9-87.6 84.9 84.9 0 0 1-9.9-15.9L206.9 702.2a90 90 0 0 1 155.1-90V422a90 90 0 0 1 180 0v150h139.8A160.5 160.5 0 0 1 842 732.2v102A157.8 157.8 0 0 1 684.2 992zM287 632a30 30 0 0 0-27 43.2l104.7 186.6a34.8 34.8 0 0 0 5.1 7.8 30 30 0 0 1 3.9 5.7 103.8 103.8 0 0 0 92.7 56.7h217.8a97.8 97.8 0 0 0 97.8-97.8v-102A100.5 100.5 0 0 0 681.8 632H512a30 30 0 0 1-30-30V422a30 30 0 0 0-60 0v270a43.8 43.8 0 0 1-21.9 37.2A30 30 0 0 1 362 719l-45.3-66.6-2.4-4.2A30 30 0 0 0 287 632z" fill="#333333" p-id="4284"></path><path d="M932 152v240a120 120 0 0 1-120 120H602v-90a150 150 0 0 0-300 0v90h-15a67.5 67.5 0 0 0-11.1 0H212A120 120 0 0 1 92 392V152A120 120 0 0 1 212 32h600a120 120 0 0 1 120 120z" fill="#333333" p-id="4285"></path></svg>