<?xml version="1.0" standalone="no"?><!DOCTYPE svg PUBLIC "-//W3C//DTD SVG 1.1//EN" "http://www.w3.org/Graphics/SVG/1.1/DTD/svg11.dtd"><svg t="1603419546378" class="icon" viewBox="0 0 1024 1024" version="1.1" xmlns="http://www.w3.org/2000/svg" p-id="16638" xmlns:xlink="http://www.w3.org/1999/xlink" width="200" height="200"><defs><style type="text/css"></style></defs><path d="M882.6 839H147.5c-66.2 0-120-53.8-120-120V303c0-66.2 53.8-120 120-120h735.1c66.2 0 120 53.8 120 120v416c0 66.1-53.8 120-120 120zM147.5 263c-22.1 0-40 17.9-40 40v416c0 22.1 17.9 40 40 40h735.1c22.1 0 40-17.9 40-40V303c0-22.1-17.9-40-40-40H147.5z" p-id="16639"></path><path d="M716 629.4L536.8 478.2l51.6-61.1 123.8 104.5L817.8 419l55.7 57.4z" p-id="16640"></path></svg>