<?xml version="1.0" standalone="no"?><!DOCTYPE svg PUBLIC "-//W3C//DTD SVG 1.1//EN" "http://www.w3.org/Graphics/SVG/1.1/DTD/svg11.dtd"><svg t="1603418692946" class="icon" viewBox="0 0 1024 1024" version="1.1" xmlns="http://www.w3.org/2000/svg" p-id="11623" xmlns:xlink="http://www.w3.org/1999/xlink" width="200" height="200"><defs><style type="text/css"></style></defs><path d="M972.8 348.16H51.2q-21.76 0-36.48-14.72Q0 318.72 0 296.96V51.2q0-21.76 14.72-36.48Q29.44 0 51.2 0q21.76 0 36.48 14.72Q102.4 29.44 102.4 51.2v194.56h819.2V51.2q0-21.76 14.72-36.48Q951.04 0 972.8 0q21.76 0 36.48 14.72Q1024 29.44 1024 51.2v245.76q0 21.76-14.72 36.48-14.72 14.72-36.48 14.72zM1024 972.8V727.04q0-21.76-14.72-36.48-14.72-14.72-36.48-14.72H51.2q-21.76 0-36.48 14.72Q0 705.28 0 727.04V972.8q0 21.76 14.72 36.48Q29.44 1024 51.2 1024q21.76 0 36.48-14.72 14.72-14.72 14.72-36.48V778.24h819.2V972.8q0 21.76 14.72 36.48Q951.04 1024 972.8 1024q21.76 0 36.48-14.72Q1024 994.56 1024 972.8z m0-454.4q0-21.76-14.72-36.48-14.72-14.72-36.48-14.72H51.2q-21.76 0-36.48 14.72Q0 496.64 0 518.4q0 21.76 14.72 35.84 14.72 14.08 36.48 15.36h921.6q21.76-1.28 36.48-15.36Q1024 540.16 1024 518.4z" fill="#666666" p-id="11624"></path></svg>