<?xml version="1.0" standalone="no"?><!DOCTYPE svg PUBLIC "-//W3C//DTD SVG 1.1//EN" "http://www.w3.org/Graphics/SVG/1.1/DTD/svg11.dtd"><svg t="1603417342016" class="icon" viewBox="0 0 1024 1024" version="1.1" xmlns="http://www.w3.org/2000/svg" p-id="5179" xmlns:xlink="http://www.w3.org/1999/xlink" width="200" height="200"><defs><style type="text/css"></style></defs><path d="M817.312 551.104a127.68 127.68 0 0 1-27.2 27.104c-23.008 30.784-56 46.784-85.216 37.216-40.288-13.216-58.016-69.6-39.488-126.112a141.696 141.696 0 0 1 25.088-45.696l68.288-160.288 28.096-66.112c-84.608-85.888-216.096-138.112-394.592-109.6C0.8 170.112-120 649.12 134.08 874.016c237.696 210.496 362.4 67.104 452.608-92.096 10.208-18.016 34.304-28.608 54.912-26.4 65.504 7.008 199.808-0.384 246.304-164.704 12.992-46.016 16-96.608 9.088-147.296l-79.712 107.584zM231.904 345.088a81.184 81.184 0 1 1 0 162.4 81.184 81.184 0 0 1 0.032-162.4zM185.088 716.704a81.184 81.184 0 1 1 81.216-81.216 81.216 81.216 0 0 1-81.184 81.216z m159.296 162.496c-44.8 0-81.184-36.288-81.184-81.216a81.184 81.184 0 1 1 162.368 0 81.184 81.184 0 0 1-81.184 81.216z m65.632-512.288a81.184 81.184 0 1 1 0-162.336 81.184 81.184 0 0 1 0 162.336z m529.472-300.32c-52.608 3.392-92 54.304-92 54.304l0.384 0.192a100.736 100.736 0 0 0 6.112 148.928 100.832 100.832 0 0 0 142.016-12.384 99.808 99.808 0 0 0 22.688-52.288c19.392-91.584-20.384-153.504-20.384-153.504s-6.208 11.392-58.784 14.784z m-232.192 512.896c19.808 11.488 52.704-1.888 73.504-30.016l96.896-130.912c-45.088-10.4-85.6-38.4-111.712-60.192l-6.912-5.888-63.008 148c-13.504 32-8.608 67.488 11.2 79.008z m136.992-298.08a115.648 115.648 0 0 1-34.208-48.512l-28.896 68c25.6 25.408 81.6 69.696 132.704 68.992l52.896-71.392a116.992 116.992 0 0 1-122.496-17.088z" fill="" p-id="5180"></path></svg>