<?xml version="1.0" standalone="no"?><!DOCTYPE svg PUBLIC "-//W3C//DTD SVG 1.1//EN" "http://www.w3.org/Graphics/SVG/1.1/DTD/svg11.dtd"><svg t="1603417418059" class="icon" viewBox="0 0 1024 1024" version="1.1" xmlns="http://www.w3.org/2000/svg" p-id="7785" xmlns:xlink="http://www.w3.org/1999/xlink" width="200" height="200"><defs><style type="text/css"></style></defs><path d="M0 136.2v751.6C0 963 61 1024 136.2 1024h751.6c75.2 0 136.2-61 136.2-136.2V136.2C1024 61 963 0 887.8 0H136.2C61 0 0 61 0 136.2z m814 231.6l-18.1 4.2c-11.4 2.7-22.7-4.5-25.1-15.9C747.6 246.8 716.7 237 634.2 237h-53.4c-11.5 0-20.8 9.3-20.8 20.8v481.7c0 36.4 1.8 56.5 11.4 65.9 10.6 10.4 35.9 15.6 87.4 18 11.1 0.6 19.8 9.7 19.8 20.8v15c0 11.5-9.3 20.8-20.8 20.8H369.4c-11.5 0-20.8-9.3-20.8-20.8v-15c0-11.1 8.7-20.2 19.8-20.8 48.6-2.4 73.6-7.8 83.5-17.8 9.3-9.5 11.1-29.7 11.1-66.2V257.8c0-11.5-9.3-20.8-20.8-20.8h-24.6c-68.3 0-101 5.8-120.4 21.2-20.6 16.4-31.4 50-45.4 99.3-2.5 8.9-10.7 15.1-20 15.1h-17.1c-12.4 0-21.9-10.6-20.7-22.9 6.8-67.5 9.9-134.6 11.6-185.5 0.4-11.2 9.6-20.1 20.8-20.1h17.1c7.4 0 14.2 3.9 18 10.3 5.7 9.8 9.9 12.3 12.8 13.4 5 1.9 14.7 1.9 26.9 1.9h430.4c20.2 0 21.9-1.4 33.4-17.2 4.2-5.7 10.9-8.8 18-8.4l18.1 1.1c11.4 0.6 20.1 10.3 19.6 21.6-1.9 43.8 3.1 102.6 7.9 159.4 0.6 6.5 1.1 13 1.7 19.5 0.7 10.4-6.1 19.7-16.3 22.1z" p-id="7786"></path></svg>